# xmcd
#
# Track frame offsets:
# 150
# 14112
# 33205
# 48025
# 61973
# 72577
# 87513
# 107033
# 125479
# 139810
# 153502
# 170608
# 189018
# 204738
#
# Disc length: 3014 seconds
#
#
# Revision: 1
# Processed by: cddbd v1.5.1PL2 Copyright (c) Steve Scherf et al.
# Submitted via: FreeRIP 2.943 
#
DISCID=c50bc40e
DTITLE=John and John - Fuerig U Fätzig
DYEAR=2003
DGENRE=
TTITLE0=Oh, blyb doch da
TTITLE1=Ab i d Bärge
TTITLE2=Boat on the river
TTITLE3=Le-Lo-La
TTITLE4=Süess
TTITLE5=Ring of fire
TTITLE6=Ämmitau
TTITLE7=Caroline
TTITLE8=Gigolo
TTITLE9=I bruuche di hütt Nacht
TTITLE10=Meitschi
TTITLE11=I can see clearly now
TTITLE12=Nume di
TTITLE13=Hymn
EXTD=
EXTT0=
EXTT1=
EXTT2=
EXTT3=
EXTT4=
EXTT5=
EXTT6=
EXTT7=
EXTT8=
EXTT9=
EXTT10=
EXTT11=
EXTT12=
EXTT13=
PLAYORDER=
